<?xml version="1.0" encoding="utf-8"?>
<!-- Generator: Adobe Illustrator 21.1.0, SVG Export Plug-In . SVG Version: 6.00 Build 0)  -->
<svg version="1.1" id="Layer_1" xmlns="http://www.w3.org/2000/svg" xmlns:xlink="http://www.w3.org/1999/xlink" x="0px" y="0px"
	 viewBox="0 0 52.2 72" style="enable-background:new 0 0 52.2 72;" xml:space="preserve" fill="#883939">
<g>
	<g>
		<path d="M26.1,0C11.7,0,0,11.7,0,26.1c0,4,0.9,7.9,2.7,11.5L26.1,72l23.2-34.1l0.2-0.3c1.8-3.6,2.7-7.5,2.7-11.5
			C52.2,11.7,40.5,0,26.1,0z M44.6,35L26.1,62.1L7.6,35c-1.4-2.8-2-5.8-2-8.9c0-11.3,9.2-20.5,20.5-20.5c11.3,0,20.5,9.2,20.5,20.5
			C46.6,29.2,45.9,32.1,44.6,35z"/>
		<path d="M26.1,15.4L26.1,15.4C26.1,15.3,26.2,15.3,26.1,15.4C26,15.3,26.1,15.3,26.1,15.4L26.1,15.4c-7,0.5-11.4,5.8-11.4,12.3
			S19.1,39.5,26.1,40v0.1c0,0-0.1,0,0,0c0.1,0,0,0,0,0V40c7-0.5,11.4-5.8,11.4-12.3S33.1,15.9,26.1,15.4z"/>
	</g>
</g>
</svg>
