<svg enable-background="new 0 0 52.2 72" fill="#883939" viewBox="0 0 52.2 72" xmlns="http://www.w3.org/2000/svg"><path d="m26.1 0c-14.4 0-26.1 11.7-26.1 26.1 0 4 .9 7.9 2.7 11.5l23.4 34.4 23.2-34.1.2-.3c1.8-3.6 2.7-7.5 2.7-11.5 0-14.4-11.7-26.1-26.1-26.1zm18.5 35-18.5 27.1-18.5-27.1c-1.4-2.8-2-5.8-2-8.9 0-11.3 9.2-20.5 20.5-20.5s20.5 9.2 20.5 20.5c0 3.1-.7 6-2 8.9z"/><path d="m26.1 15.4c0-.1.1-.1 0 0-.1-.1 0-.1 0 0-7 .5-11.4 5.8-11.4 12.3s4.4 11.8 11.4 12.3v.1-.1c7-.5 11.4-5.8 11.4-12.3s-4.4-11.8-11.4-12.3z"/></svg>